<svg width="50" height="50" viewBox="0 0 50 50" fill="none" xmlns="http://www.w3.org/2000/svg">
<rect width="50" height="50" rx="8" fill="#1DA1F2"/>
<g clip-path="url(#clip0_1_2155)">
<path d="M32.875 23.875H26.125V17.125C26.125 16.5037 25.6213 16 25 16C24.3787 16 23.875 16.5037 23.875 17.125V23.875H17.125C16.5037 23.875 16 24.3787 16 25C16 25.6213 16.5037 26.125 17.125 26.125H23.875V32.875C23.875 33.4963 24.3787 34 25 34C25.6213 34 26.125 33.4963 26.125 32.875V26.125H32.875C33.4963 26.125 34 25.6213 34 25C34 24.3787 33.4963 23.875 32.875 23.875Z" fill="white"/>
</g>
<defs>
<clipPath id="clip0_1_2155">
<rect width="18" height="18" fill="white" transform="translate(16 16)"/>
</clipPath>
</defs>
</svg>
